<svg width="150" height="77" viewBox="0 0 150 77" fill="none" xmlns="http://www.w3.org/2000/svg">
<path fill-rule="evenodd" clip-rule="evenodd" d="M43.5867 3.30885C35.93 5.7968 29.3093 11.7098 26.4551 17.5339C26.2008 18.0529 25.5732 18.2677 25.0534 18.0138C24.5336 17.7599 24.3184 17.1334 24.5727 16.6144C27.691 10.2515 34.7748 3.97194 42.9382 1.31938C51.1723 -1.35619 60.5964 -0.358438 68.1367 8.01057C73.8682 14.3719 75.7545 24.7333 73.8438 35.2034C72.5389 42.3542 69.4505 49.6477 64.5017 55.9014C67.4242 55.2253 70.0672 54.6576 72.3129 54.2336C72.8415 54.1338 73.3962 54.029 73.9755 53.9195C91.2128 50.6622 130.192 43.2965 148.295 42.0261C148.872 41.9856 149.373 42.4199 149.413 42.9963C149.454 43.5726 149.019 44.0726 148.442 44.1131C130.468 45.3745 91.5697 52.7243 74.3075 55.9861C73.7494 56.0916 73.2138 56.1928 72.7023 56.2893C69.7939 56.8385 66.2027 57.6335 62.1914 58.5956C60.423 60.4999 58.461 62.2785 56.3029 63.8922C48.0628 70.0536 38.3145 73.0914 30.9074 73.1733C27.8085 73.2076 25.0151 72.7251 22.9065 71.6446C17.8134 73.1715 12.7715 74.5877 8.83166 75.5765C6.73961 76.1015 4.94121 76.5104 3.60505 76.7504C2.94051 76.8698 2.36361 76.9523 1.91099 76.9829C1.68687 76.9981 1.46232 77.0028 1.25827 76.9845C1.10571 76.9709 0.76005 76.9318 0.46013 76.7097C0.224381 76.5351 -0.0144692 76.2111 0.000685076 75.7671C0.0129702 75.4072 0.191272 75.1595 0.276631 75.0548C0.453261 74.8383 0.69467 74.6824 0.857896 74.5847C1.2312 74.3612 1.78608 74.1058 2.45709 73.8287C3.81984 73.2657 5.85674 72.5341 8.38175 71.6873C11.4398 70.6618 15.2431 69.4578 19.4902 68.1656C19.4528 68.0752 19.4175 67.9835 19.3844 67.8906C18.9354 66.6314 18.9075 65.216 19.2959 63.6869C20.074 60.6236 22.6337 57.601 25.8638 54.9473C29.1282 52.2656 33.2261 49.8394 37.329 48.0041C41.4235 46.1725 45.5924 44.8983 49.0035 44.5731C50.7057 44.4109 52.2884 44.4778 53.5996 44.8807C54.9299 45.2893 56.0461 46.0695 56.6287 47.349C58.2919 51.0021 57.3359 54.8573 55.1542 58.1831C57.1976 57.6629 59.1805 57.1699 61.0763 56.712C66.842 50.3176 70.3832 42.4946 71.7822 34.8284C73.6227 24.7427 71.729 15.1261 66.5787 9.40976C59.6843 1.75767 51.1727 0.8439 43.5867 3.30885ZM58.2528 59.5599C56.5539 59.9836 54.8011 60.43 53.0113 60.8941C50.0622 64.0584 46.0062 66.6199 41.9995 67.8715C40.8597 68.2276 39.8437 68.3552 39.0074 68.1433C38.7947 68.0894 38.5985 68.0147 38.4198 67.9211C38.3106 67.9844 38.2033 68.0455 38.0983 68.1043C37.2438 68.5827 36.4121 68.9809 35.7928 69.0993C35.6273 69.1309 35.4142 69.1558 35.1878 69.1266C34.9588 69.097 34.6225 68.9976 34.3614 68.6934C34.2055 68.5118 34.1247 68.3139 34.0878 68.13C31.6296 68.9438 28.9625 69.793 26.248 70.6291C27.5776 70.9419 29.1364 71.1006 30.8842 71.0812C37.8154 71.0046 47.1371 68.1318 55.0467 62.2176C56.1708 61.377 57.2394 60.4891 58.2528 59.5599ZM23.1717 69.3796C23.2043 69.3698 23.2368 69.36 23.2693 69.3502C25.8671 68.5652 28.461 67.7565 30.9109 66.9664C30.2352 67.1615 29.5637 67.3563 28.8971 67.5504C26.8873 68.1359 24.9239 68.7157 23.0304 69.2828C23.0767 69.3155 23.1238 69.3478 23.1717 69.3796ZM20.6717 69.9936C18.4905 70.6551 16.4228 71.2942 14.5083 71.899C16.5116 71.3409 18.6257 70.7324 20.7703 70.0976C20.737 70.0632 20.7042 70.0286 20.6717 69.9936ZM1.41521 74.8964C1.41575 74.8961 1.42416 74.8969 1.43883 74.9001C1.42199 74.8984 1.41466 74.8968 1.41521 74.8964ZM21.5106 67.5543C23.6911 66.8982 25.97 66.2237 28.3101 65.542C30.5033 64.9031 32.7518 64.2574 35.0248 63.6142C35.6921 63.3169 36.4197 63.0235 37.1698 62.7447C37.9625 61.7648 38.8424 60.7602 39.7297 59.8262C40.6576 58.6252 41.7793 57.4652 42.992 56.517C44.7137 55.1707 46.7678 54.1365 48.8004 54.2162C49.3011 54.2358 49.8142 54.3291 50.2408 54.5927C50.7218 54.89 51.0144 55.3577 51.0702 55.9072C51.1194 56.392 50.9769 56.8553 50.8047 57.2343C50.626 57.6276 50.3693 58.0296 50.0729 58.4258C49.7458 58.8632 49.3422 59.3299 48.8818 59.8137C49.8888 59.5469 50.8883 59.2843 51.8774 59.0269C52.0383 58.8437 52.195 58.6587 52.3472 58.4719C55.0843 55.1125 56.1869 51.4348 54.7209 48.2147C54.4521 47.6243 53.9115 47.1655 52.9833 46.8803C52.036 46.5893 50.7586 46.5075 49.2027 46.6558C46.0978 46.9518 42.1594 48.1359 38.1858 49.9134C34.2207 51.6871 30.2899 54.0207 27.1954 56.5629C24.0667 59.1332 21.9375 61.7986 21.3272 64.2012C21.0214 65.405 21.0734 66.3889 21.3586 67.1889C21.4029 67.3133 21.4536 67.4351 21.5106 67.5543ZM48.6239 62.0472C48.0462 62.2009 47.4662 62.356 46.8844 62.5123C46.8371 62.6579 46.7736 62.7795 46.7201 62.8672C46.5702 63.1127 46.3543 63.2879 46.2091 63.395C46.0415 63.5185 45.8442 63.6392 45.6336 63.756C45.2109 63.9903 44.6577 64.2508 44.0085 64.5303C43.6202 64.6975 43.1902 64.8746 42.723 65.0604C42.4039 65.2946 42.0855 65.5237 41.7702 65.7463C44.1401 64.9505 46.5256 63.6549 48.6239 62.0472ZM47.0901 58.6543C47.3391 58.1584 47.5072 57.6008 47.4431 57.0281C47.4241 56.8593 47.387 56.6781 47.3192 56.4988C47.8086 56.3561 48.2783 56.2895 48.7182 56.3067C48.7971 56.3098 48.8629 56.3155 48.9171 56.3223C48.9108 56.3374 48.9038 56.3533 48.8962 56.37C48.8017 56.5781 48.6385 56.8469 48.3939 57.1739C48.0591 57.6214 47.6154 58.1215 47.0901 58.6543ZM41.1116 61.4732C41.1813 61.3778 41.2524 61.2825 41.3249 61.1874C41.5467 60.9551 41.7687 60.7278 41.9893 60.5072C43.2128 59.2839 44.3375 58.3268 45.1502 57.841C45.1196 57.8952 45.0845 57.9535 45.0446 58.0159C44.7611 58.4586 44.3114 58.9817 43.7147 59.5587C43.1168 60.1368 42.4016 60.7401 41.6211 61.3378C41.4533 61.3811 41.2833 61.4263 41.1116 61.4732ZM36.1413 67.9947C36.1406 67.9973 36.1401 67.9986 36.1401 67.9985C36.1401 67.9984 36.1404 67.9972 36.1413 67.9947Z" fill="white"/>
<path fill-rule="evenodd" clip-rule="evenodd" d="M119.128 30.3238C119.15 30.2187 119.16 30.0934 119.141 29.9538C119.096 29.6202 118.908 29.3578 118.676 29.1981C118.479 29.0625 118.285 29.0221 118.182 29.0071C117.977 28.9772 117.788 29.0026 117.685 29.0193C117.253 29.0889 116.603 29.3187 116.004 29.5517C115.368 29.7988 114.672 30.0977 114.095 30.3619C113.564 30.6052 113.017 30.8709 112.772 31.0438C112.685 31.1057 112.616 31.1738 112.565 31.2338C112.154 31.3336 111.755 31.4239 111.382 31.5022C111.371 31.4425 111.355 31.38 111.332 31.316C111.232 31.036 111.005 30.7481 110.632 30.6204C110.317 30.5127 110.042 30.5709 109.906 30.6115C109.637 30.6915 109.421 30.8512 109.303 30.9447C109.03 31.162 108.751 31.4657 108.55 31.7388C108.451 31.8735 108.338 32.0443 108.257 32.2266C108.218 32.3146 108.164 32.4554 108.142 32.6263C108.122 32.7804 108.107 33.1307 108.354 33.4622C108.448 33.589 108.557 33.6772 108.657 33.7384C108.574 34.2332 108.523 34.7599 108.489 35.2785C108.415 36.4294 108.417 37.7183 108.43 38.8973C108.432 39.1511 108.436 39.3987 108.439 39.6387C108.446 40.1689 108.452 40.6621 108.452 41.1031C108.363 40.9649 108.272 40.8166 108.178 40.6588C107.505 39.5243 106.799 38.046 106.199 36.6833C105.883 35.9636 105.6 35.2855 105.372 34.7209C105.309 34.5206 105.239 34.3192 105.161 34.1169C104.948 33.5599 104.811 33.2188 104.754 33.0963C104.748 33.0843 104.739 33.067 104.729 33.0473L104.729 33.047C104.722 33.0343 104.699 32.9897 104.664 32.9381L104.664 32.9381C104.651 32.9186 104.603 32.848 104.526 32.7726C104.48 32.7312 104.353 32.6368 104.268 32.5887C104.116 32.5263 103.71 32.4791 103.467 32.5281C103.233 32.6387 102.922 32.943 102.836 33.0997C102.798 33.1999 102.758 33.3685 102.75 33.4343C102.74 33.5486 102.752 33.6386 102.755 33.6625L102.755 33.663C102.764 33.7267 102.776 33.777 102.78 33.7908L102.78 33.7914C102.786 33.8131 102.791 33.8317 102.795 33.8443C102.802 33.8697 102.81 33.8948 102.817 33.9156C102.845 33.9972 102.89 34.1216 102.946 34.2728C103.048 34.5442 103.2 34.9391 103.392 35.4155C104.538 39.2234 102.367 42.6708 100.885 44.107C100.469 44.5096 100.459 45.173 100.861 45.5886C101.264 46.0042 101.927 46.0147 102.343 45.612C103.404 44.5841 104.858 42.6049 105.495 40.1102C105.784 40.6802 106.081 41.2304 106.376 41.7285C106.743 42.3464 107.13 42.9221 107.519 43.361C107.714 43.5806 107.933 43.7928 108.173 43.9604C108.407 44.123 108.73 44.2917 109.121 44.319L109.126 44.3194L109.131 44.3197C109.754 44.3573 110.099 43.9239 110.22 43.7189C110.342 43.5107 110.398 43.2885 110.428 43.1398C110.494 42.8208 110.521 42.417 110.535 42.0067C110.557 41.3422 110.546 40.4843 110.534 39.5802C110.531 39.3472 110.528 39.1111 110.525 38.8745C110.512 37.697 110.511 36.4783 110.58 35.4142C110.625 34.7303 110.695 34.1719 110.787 33.7519C111.113 33.6949 111.476 33.6243 111.862 33.5426C111.764 34.1244 111.676 34.7932 111.619 35.493C111.538 36.4853 111.516 37.5708 111.625 38.5734C111.731 39.5482 111.974 40.578 112.523 41.3506C114.047 43.4938 116.999 43.66 119.408 43.0954C120.177 42.915 120.958 42.6468 121.702 42.3015C121.922 42.2909 122.146 42.2626 122.373 42.2156C123.374 42.0078 124.165 41.3174 124.756 40.515C125.797 41.1366 127.079 41.4554 128.614 41.2414C129.187 41.1614 129.587 40.632 129.507 40.0589C129.427 39.4857 128.898 39.0859 128.325 39.1658C127.326 39.3051 126.472 39.1018 125.763 38.6681C125.802 38.5712 125.84 38.4735 125.876 38.3749C126.572 36.8218 126.976 34.8325 126.921 33.0823C126.89 32.0748 126.704 31.0548 126.257 30.2181C125.792 29.3494 125.026 28.6553 123.914 28.4744C122.151 28.1872 120.421 29.0755 119.128 30.3238ZM123.204 30.5178C122.296 30.538 121.194 31.1134 120.229 32.2024C119.15 33.4201 118.488 35.0211 118.584 36.4207C118.744 38.7562 120.066 39.9976 121.269 40.1782C121.944 39.8195 122.536 39.3962 122.995 38.9421C122.408 38.1954 121.973 37.3504 121.685 36.5292C121.241 35.264 121.083 33.9187 121.263 32.8301C121.353 32.2889 121.54 31.7294 121.898 31.2839C122.218 30.8853 122.664 30.5976 123.204 30.5178ZM124.146 36.9151C124.232 36.6027 124.303 36.2831 124.355 35.9634C124.532 34.8953 124.493 33.9451 124.279 33.3153C124.175 33.0087 124.048 32.8316 123.938 32.736C123.847 32.6572 123.73 32.5984 123.536 32.5916C123.535 32.593 123.533 32.5944 123.532 32.5959C123.479 32.6625 123.386 32.8369 123.331 33.1731C123.22 33.8394 123.307 34.8231 123.662 35.8355C123.795 36.2131 123.956 36.5762 124.146 36.9151ZM123.552 32.5747C123.552 32.5747 123.552 32.5749 123.551 32.5751C123.552 32.5748 123.552 32.5747 123.552 32.5747ZM118.577 41.1307C117.407 40.078 116.62 38.4178 116.493 36.564C116.37 34.7671 117.058 32.9479 118.102 31.5085C117.587 31.8262 116.919 32.102 116.263 32.336C115.596 32.5743 114.85 32.8002 114.104 33.0021C114.084 33.0874 114.064 33.1805 114.043 33.281C113.913 33.9063 113.782 34.7543 113.708 35.6636C113.633 36.5764 113.618 37.52 113.708 38.3468C113.801 39.2016 113.993 39.8017 114.231 40.1362C114.938 41.1303 116.55 41.5254 118.577 41.1307ZM118.034 31.086C118.034 31.0862 118.031 31.0867 118.024 31.0873C118.031 31.0862 118.035 31.0859 118.034 31.086ZM108.366 42.7577C108.366 42.7576 108.367 42.7557 108.368 42.752C108.367 42.756 108.366 42.7578 108.366 42.7577ZM109.397 42.2572C109.4 42.2586 109.401 42.2595 109.401 42.2596C109.401 42.2596 109.4 42.259 109.397 42.2572Z" fill="white"/>
</svg>
